<svg id="visual" viewBox="0 0 900 450" width="900" height="450" xmlns="http://www.w3.org/2000/svg" xmlns:xlink="http://www.w3.org/1999/xlink" version="1.1"><rect x="0" y="0" width="900" height="450" fill="#b9aff6"></rect><path d="M0 320L129 313L257 319L386 348L514 350L643 347L771 330L900 306L900 451L771 451L643 451L514 451L386 451L257 451L129 451L0 451Z" fill="#a85cf2"></path><path d="M0 343L129 370L257 343L386 326L514 342L643 345L771 350L900 340L900 451L771 451L643 451L514 451L386 451L257 451L129 451L0 451Z" fill="#be52f2"></path><path d="M0 389L129 363L257 374L386 378L514 365L643 369L771 383L900 390L900 451L771 451L643 451L514 451L386 451L257 451L129 451L0 451Z" fill="#d445ef"></path><path d="M0 401L129 392L257 383L386 397L514 408L643 384L771 415L900 393L900 451L771 451L643 451L514 451L386 451L257 451L129 451L0 451Z" fill="#ea31ea"></path><path d="M0 419L129 432L257 423L386 416L514 404L643 415L771 418L900 412L900 451L771 451L643 451L514 451L386 451L257 451L129 451L0 451Z" fill="#ff00e3"></path></svg>