<svg id="visual" viewBox="0 0 800 350" width="800" height="350" xmlns="http://www.w3.org/2000/svg" xmlns:xlink="http://www.w3.org/1999/xlink" version="1.1"><rect x="0" y="0" width="800" height="350" fill="#FFFFFF"></rect><path d="M0 254L19 247.7C38 241.3 76 228.7 114.2 229.3C152.3 230 190.7 244 228.8 242.7C267 241.3 305 224.7 343 216.7C381 208.7 419 209.3 457 211.7C495 214 533 218 571.2 224.5C609.3 231 647.7 240 685.8 240.2C724 240.3 762 231.7 781 227.3L800 223L800 351L781 351C762 351 724 351 685.8 351C647.7 351 609.3 351 571.2 351C533 351 495 351 457 351C419 351 381 351 343 351C305 351 267 351 228.8 351C190.7 351 152.3 351 114.2 351C76 351 38 351 19 351L0 351Z" fill="#fae769"></path><path d="M0 254L19 251.3C38 248.7 76 243.3 114.2 240C152.3 236.7 190.7 235.3 228.8 237C267 238.7 305 243.3 343 250.3C381 257.3 419 266.7 457 270.2C495 273.7 533 271.3 571.2 269.7C609.3 268 647.7 267 685.8 264.5C724 262 762 258 781 256L800 254L800 351L781 351C762 351 724 351 685.8 351C647.7 351 609.3 351 571.2 351C533 351 495 351 457 351C419 351 381 351 343 351C305 351 267 351 228.8 351C190.7 351 152.3 351 114.2 351C76 351 38 351 19 351L0 351Z" fill="#f4d65f"></path><path d="M0 294L19 289.8C38 285.7 76 277.3 114.2 273.7C152.3 270 190.7 271 228.8 270.8C267 270.7 305 269.3 343 270C381 270.7 419 273.3 457 275.2C495 277 533 278 571.2 276.3C609.3 274.7 647.7 270.3 685.8 271C724 271.7 762 277.3 781 280.2L800 283L800 351L781 351C762 351 724 351 685.8 351C647.7 351 609.3 351 571.2 351C533 351 495 351 457 351C419 351 381 351 343 351C305 351 267 351 228.8 351C190.7 351 152.3 351 114.2 351C76 351 38 351 19 351L0 351Z" fill="#edc557"></path><path d="M0 285L19 287.3C38 289.7 76 294.3 114.2 294C152.3 293.7 190.7 288.3 228.8 289.7C267 291 305 299 343 302.7C381 306.3 419 305.7 457 303.2C495 300.7 533 296.3 571.2 292.5C609.3 288.7 647.7 285.3 685.8 284.3C724 283.3 762 284.7 781 285.3L800 286L800 351L781 351C762 351 724 351 685.8 351C647.7 351 609.3 351 571.2 351C533 351 495 351 457 351C419 351 381 351 343 351C305 351 267 351 228.8 351C190.7 351 152.3 351 114.2 351C76 351 38 351 19 351L0 351Z" fill="#e5b550"></path><path d="M0 306L19 308.8C38 311.7 76 317.3 114.2 320.5C152.3 323.7 190.7 324.3 228.8 324.7C267 325 305 325 343 326.5C381 328 419 331 457 331.5C495 332 533 330 571.2 328.2C609.3 326.3 647.7 324.7 685.8 321.7C724 318.7 762 314.3 781 312.2L800 310L800 351L781 351C762 351 724 351 685.8 351C647.7 351 609.3 351 571.2 351C533 351 495 351 457 351C419 351 381 351 343 351C305 351 267 351 228.8 351C190.7 351 152.3 351 114.2 351C76 351 38 351 19 351L0 351Z" fill="#dda549"></path></svg>